<svg width="18" height="18" viewBox="0 0 18 18" fill="none" xmlns="http://www.w3.org/2000/svg">
<g clip-path="url(#clip0_264_2675)">
<path d="M10.125 12.375C10.125 12.6734 10.0065 12.9595 9.7955 13.1705C9.58452 13.3815 9.29837 13.5 9 13.5C8.70163 13.5 8.41548 13.3815 8.2045 13.1705C7.99353 12.9595 7.875 12.6734 7.875 12.375C7.875 12.0766 7.99353 11.7905 8.2045 11.5795C8.41548 11.3685 8.70163 11.25 9 11.25C9.29837 11.25 9.58452 11.3685 9.7955 11.5795C10.0065 11.7905 10.125 12.0766 10.125 12.375ZM8.4375 4.5C7.69158 4.5 6.97621 4.79632 6.44876 5.32376C5.92132 5.85121 5.625 6.56658 5.625 7.3125H7.875C7.875 7.16332 7.93426 7.02024 8.03975 6.91475C8.14524 6.80926 8.28832 6.75 8.4375 6.75H9.16425C9.26111 6.75004 9.35512 6.78281 9.43103 6.84299C9.50693 6.90316 9.56028 6.98721 9.58242 7.08151C9.60457 7.17581 9.5942 7.27483 9.55301 7.3625C9.51182 7.45017 9.44222 7.52135 9.3555 7.5645L7.875 8.30475V10.125H10.125V9.69525L10.3624 9.576C10.902 9.30587 11.3346 8.86154 11.5902 8.31493C11.8458 7.76832 11.9095 7.15143 11.7709 6.56414C11.6322 5.97686 11.2995 5.45354 10.8264 5.07893C10.3533 4.70432 9.76768 4.50033 9.16425 4.5H8.4375Z" fill="white"/>
<path d="M0 9C0 6.61305 0.948212 4.32387 2.63604 2.63604C4.32387 0.948212 6.61305 0 9 0C11.3869 0 13.6761 0.948212 15.364 2.63604C17.0518 4.32387 18 6.61305 18 9C18 11.3869 17.0518 13.6761 15.364 15.364C13.6761 17.0518 11.3869 18 9 18C6.61305 18 4.32387 17.0518 2.63604 15.364C0.948212 13.6761 0 11.3869 0 9ZM9 2.25C8.11358 2.25 7.23583 2.42459 6.41689 2.76381C5.59794 3.10303 4.85382 3.60023 4.22703 4.22703C3.60023 4.85382 3.10303 5.59794 2.76381 6.41689C2.42459 7.23583 2.25 8.11358 2.25 9C2.25 9.88642 2.42459 10.7642 2.76381 11.5831C3.10303 12.4021 3.60023 13.1462 4.22703 13.773C4.85382 14.3998 5.59794 14.897 6.41689 15.2362C7.23583 15.5754 8.11358 15.75 9 15.75C10.7902 15.75 12.5071 15.0388 13.773 13.773C15.0388 12.5071 15.75 10.7902 15.75 9C15.75 7.20979 15.0388 5.4929 13.773 4.22703C12.5071 2.96116 10.7902 2.25 9 2.25Z" fill="white"/>
</g>
<defs>
<clipPath id="clip0_264_2675">
<rect width="18" height="18" fill="white"/>
</clipPath>
</defs>
</svg>
